<svg width="12" height="12" viewBox="0 0 33 34" fill="none" xmlns="http://www.w3.org/2000/svg">
<path d="M0.498069 32.5484L0.503968 32.5545C0.660401 32.7167 0.84644 32.8455 1.05139 32.9335C1.25634 33.0215 1.47615 33.0668 1.6982 33.067C1.88504 33.0669 2.07058 33.0352 2.24744 32.9731L11.8765 29.6102L30.3541 10.5865C31.4837 9.42346 32.1183 7.84604 32.1182 6.20128C32.1181 4.55653 31.4834 2.97917 30.3538 1.8162C29.2241 0.653235 27.6919 -7.20012e-05 26.0944 5.95181e-09C24.4969 7.20131e-05 22.9648 0.653517 21.8352 1.81659L3.35759 20.8402L0.0914263 30.7536C-0.0114578 31.0619 -0.02788 31.3938 0.0440427 31.7112C0.115965 32.0287 0.273321 32.3188 0.498069 32.5484ZM23.3696 3.39621C24.0933 2.65686 25.072 2.24286 26.0915 2.24488C27.111 2.24689 28.0882 2.66476 28.8091 3.40697C29.53 4.14918 29.9358 5.15525 29.9377 6.20488C29.9397 7.25451 29.5375 8.26216 28.8194 9.00718L26.3896 11.5088L20.9397 5.89784L23.3696 3.39621ZM5.2501 22.0511L19.4054 7.47747L24.8553 13.0884L10.6999 27.662L2.45222 30.5426L5.2501 22.0511Z" fill="black"/>
</svg>
